<svg xmlns="http://www.w3.org/2000/svg" viewBox="0 0 900 600" role="img" aria-labelledby="title desc">
  <title id="title">Photo magnets collection</title>
  <desc id="desc">A premium set of glossy photo magnets arranged on a warm neutral surface.</desc>
  <defs>
    <linearGradient id="bg" x1="0" x2="1" y1="0" y2="1">
      <stop offset="0" stop-color="#fff8ea"/>
      <stop offset="1" stop-color="#e8e2d2"/>
    </linearGradient>
    <filter id="drop" x="-20%" y="-20%" width="140%" height="140%">
      <feDropShadow dx="0" dy="12" stdDeviation="12" flood-color="#1a1a1d" flood-opacity=".18"/>
    </filter>
  </defs>
  <rect width="900" height="600" fill="url(#bg)"/>
  <circle cx="760" cy="100" r="120" fill="#b7935b" opacity=".18"/>
  <g filter="url(#drop)">
    <g transform="rotate(-8 260 250)">
      <rect x="130" y="120" width="260" height="210" rx="22" fill="#fff"/>
      <rect x="154" y="145" width="212" height="140" rx="14" fill="#91b7dd"/>
      <circle cx="220" cy="190" r="28" fill="#f4ca65"/>
      <path d="M154 285l70-72 48 48 36-38 58 62z" fill="#466f54"/>
    </g>
    <g transform="rotate(7 500 300)">
      <rect x="410" y="170" width="270" height="220" rx="24" fill="#fff"/>
      <rect x="436" y="198" width="218" height="145" rx="15" fill="#f6c4ae"/>
      <circle cx="545" cy="266" r="54" fill="#78523c"/>
      <circle cx="545" cy="258" r="38" fill="#ffd4ba"/>
    </g>
    <g transform="rotate(-2 420 430)">
      <rect x="290" y="350" width="260" height="160" rx="22" fill="#fff"/>
      <rect x="314" y="374" width="212" height="96" rx="14" fill="#b8d9aa"/>
      <path d="M314 470l62-58 38 35 43-54 69 77z" fill="#3d6c4d"/>
    </g>
  </g>
  <text x="450" y="555" text-anchor="middle" font-family="Georgia, serif" font-size="40" fill="#2f3640">Premium Photo Magnets</text>
</svg>
