<svg xmlns="http://www.w3.org/2000/svg" viewBox="0 0 900 600" role="img" aria-labelledby="title desc">
  <title id="title">Premium photo magnet shop collection</title>
  <desc id="desc">A curated shop display of custom photo magnet sets, gift bundles, and decorative fridge magnets.</desc>
  <defs>
    <linearGradient id="bg" x1="0" x2="1" y1="0" y2="1">
      <stop offset="0" stop-color="#f8f9fa"/>
      <stop offset="1" stop-color="#e8e2d2"/>
    </linearGradient>
    <filter id="drop" x="-20%" y="-20%" width="140%" height="140%">
      <feDropShadow dx="0" dy="14" stdDeviation="14" flood-color="#1a1a1d" flood-opacity=".18"/>
    </filter>
  </defs>
  <rect width="900" height="600" fill="url(#bg)"/>
  <rect x="110" y="105" width="680" height="390" rx="30" fill="#fff" filter="url(#drop)"/>
  <path d="M170 185h560" stroke="#e8e2d2" stroke-width="8" stroke-linecap="round"/>
  <g transform="translate(170 225)">
    <rect width="140" height="120" rx="18" fill="#fff8ea" stroke="#b7935b" stroke-width="5"/>
    <rect x="24" y="24" width="92" height="55" rx="9" fill="#91b7dd"/>
    <circle cx="122" cy="18" r="12" fill="#b7935b"/>
  </g>
  <g transform="translate(380 225)">
    <rect width="140" height="120" rx="18" fill="#fff8ea" stroke="#b7935b" stroke-width="5"/>
    <rect x="24" y="24" width="92" height="55" rx="9" fill="#f7c7b2"/>
    <circle cx="70" cy="51" r="24" fill="#7b543d"/>
    <circle cx="122" cy="18" r="12" fill="#b7935b"/>
  </g>
  <g transform="translate(590 225)">
    <rect width="140" height="120" rx="18" fill="#fff8ea" stroke="#b7935b" stroke-width="5"/>
    <rect x="24" y="24" width="92" height="55" rx="9" fill="#b9d9ac"/>
    <path d="M24 79l38-34 26 24 28-36v46z" fill="#456d52"/>
    <circle cx="122" cy="18" r="12" fill="#b7935b"/>
  </g>
  <rect x="330" y="405" width="240" height="58" rx="29" fill="#b7935b"/>
  <text x="450" y="443" text-anchor="middle" font-family="Inter, Arial, sans-serif" font-size="24" fill="#fff">View Affiliate Picks</text>
</svg>
